<svg width="30" height="22" viewBox="0 0 30 22" fill="none" xmlns="http://www.w3.org/2000/svg">
<g clip-path="url(#clip0_93_306)">
<path d="M25.413 1.84247C23.442 0.969333 21.3612 0.349904 19.2238 0C18.9313 0.505909 18.6666 1.02642 18.4309 1.55936C16.1542 1.2274 13.8389 1.2274 11.5621 1.55936C11.3263 1.02648 11.0617 0.50597 10.7693 0C8.63052 0.352858 6.54836 0.973758 4.57534 1.84703C0.658398 7.45434 -0.403423 12.9224 0.127488 18.3128C2.42135 19.9526 4.98883 21.1998 7.71833 22C8.33293 21.2002 8.87678 20.3517 9.3441 19.4635C8.4565 19.1427 7.5998 18.747 6.78393 18.2808C6.99865 18.1301 7.20866 17.9749 7.41158 17.8242C9.78558 18.9044 12.3767 19.4645 15.0001 19.4645C17.6235 19.4645 20.2146 18.9044 22.5886 17.8242C22.7938 17.9863 23.0038 18.1416 23.2162 18.2808C22.3988 18.7477 21.5405 19.1442 20.6513 19.4658C21.1181 20.3535 21.6619 21.2013 22.2771 22C25.0089 21.203 27.5784 19.9564 29.8726 18.3151V18.3151C30.4956 12.0639 28.8085 6.64612 25.413 1.84247ZM10.0166 14.9977C8.53712 14.9977 7.31484 13.6986 7.31484 12.1005C7.31484 10.5023 8.49464 9.19178 10.0119 9.19178C11.5291 9.19178 12.7419 10.5023 12.716 12.1005C12.69 13.6986 11.5244 14.9977 10.0166 14.9977ZM19.9836 14.9977C18.5017 14.9977 17.2842 13.6986 17.2842 12.1005C17.2842 10.5023 18.464 9.19178 19.9836 9.19178C21.5031 9.19178 22.7065 10.5023 22.6806 12.1005C22.6546 13.6986 21.4913 14.9977 19.9836 14.9977Z" fill="#1E1E1E"/>
</g>
<defs>
<clipPath id="clip0_93_306">
<rect width="30" height="22" fill="white"/>
</clipPath>
</defs>
</svg>
