<svg width="25" height="25" viewBox="0 0 25 25" fill="none" xmlns="http://www.w3.org/2000/svg">
<path d="M13.0574 24.4474C11.0939 24.4474 9.34579 24.1797 7.81312 23.6442C6.28045 23.1148 4.98476 22.3362 3.92605 21.3082C2.86734 20.2865 2.06099 19.0369 1.50701 17.5597C0.953036 16.0824 0.676048 14.402 0.676048 12.5185C0.676048 10.6596 0.953036 8.97301 1.50701 7.45881C2.06715 5.9446 2.88272 4.64583 3.95375 3.5625C5.02477 2.47301 6.33277 1.63589 7.87775 1.05114C9.42889 0.466382 11.1955 0.174005 13.1775 0.174005C15.0117 0.174005 16.6491 0.441761 18.0894 0.977273C19.5359 1.51278 20.7608 2.27604 21.7641 3.26705C22.7736 4.25189 23.5399 5.42448 24.0631 6.7848C24.5925 8.13897 24.8541 9.63778 24.8479 11.2812C24.8541 12.4138 24.7556 13.4541 24.5525 14.402C24.3493 15.3499 24.0293 16.1778 23.5922 16.8857C23.1614 17.5874 22.5951 18.1444 21.8934 18.5568C21.1917 18.9631 20.3422 19.1939 19.3451 19.2493C18.6311 19.3047 18.0525 19.2524 17.6093 19.0923C17.1661 18.9323 16.8276 18.6953 16.5937 18.3814C16.3659 18.0613 16.2182 17.6889 16.1505 17.2642H16.0397C15.892 17.6335 15.6027 17.969 15.1718 18.2706C14.7409 18.5661 14.2146 18.7969 13.593 18.9631C12.9774 19.1231 12.3219 19.1816 11.6263 19.1385C10.9 19.0954 10.2106 18.9261 9.55815 18.6307C8.91184 18.3352 8.33632 17.9074 7.83159 17.3473C7.33301 16.7872 6.93907 16.0947 6.64977 15.2699C6.36663 14.4451 6.22198 13.491 6.21582 12.4077C6.22198 11.3366 6.37278 10.4041 6.66823 9.61008C6.96985 8.81605 7.36686 8.1482 7.85929 7.60653C8.35787 7.06487 8.91184 6.64015 9.52122 6.33239C10.1306 6.02462 10.743 5.82765 11.3586 5.74148C12.0541 5.63684 12.7127 5.63684 13.3344 5.74148C13.9561 5.84612 14.4793 6.01539 14.904 6.24929C15.3349 6.48319 15.6027 6.73556 15.7073 7.00639H15.8366V5.9723H18.7265V14.9837C18.7326 15.4084 18.828 15.7377 19.0127 15.9716C19.1974 16.2055 19.4466 16.3224 19.7606 16.3224C20.1853 16.3224 20.5392 16.1347 20.8224 15.7592C21.1117 15.3838 21.3271 14.8082 21.4687 14.0327C21.6164 13.2571 21.6903 12.2692 21.6903 11.0689C21.6903 9.91169 21.5364 8.89607 21.2286 8.02202C20.927 7.14181 20.5023 6.39394 19.9545 5.77841C19.4128 5.15672 18.7819 4.65199 18.0617 4.2642C17.3415 3.87642 16.5598 3.59328 15.7165 3.41477C14.8794 3.23627 14.0177 3.14702 13.1313 3.14702C11.5986 3.14702 10.2599 3.38092 9.11497 3.84872C7.97008 4.31037 7.01601 4.95975 6.25275 5.79688C5.48949 6.634 4.91705 7.61577 4.53542 8.74219C4.15995 9.86245 3.96913 11.0843 3.96298 12.4077C3.96913 13.8665 4.17226 15.1591 4.57235 16.2855C4.9786 17.4058 5.57567 18.3475 6.36355 19.1108C7.15143 19.8741 8.12396 20.4527 9.28116 20.8466C10.4384 21.2405 11.7679 21.4375 13.2698 21.4375C13.9777 21.4375 14.6701 21.3852 15.3472 21.2805C16.0243 21.1821 16.6367 21.0589 17.1846 20.9112C17.7324 20.7696 18.1725 20.6312 18.5049 20.4957L19.4189 23.1733C19.0312 23.3949 18.5049 23.6011 17.8401 23.7919C17.1815 23.9889 16.4367 24.1458 15.6057 24.2628C14.7809 24.3859 13.9315 24.4474 13.0574 24.4474ZM12.6327 16.1009C13.3837 16.1009 13.9807 15.9562 14.4239 15.6669C14.8733 15.3776 15.1933 14.9498 15.3841 14.3835C15.5811 13.8111 15.6734 13.1063 15.6611 12.2692C15.655 11.5305 15.5596 10.9058 15.3749 10.3949C15.1964 9.87784 14.8856 9.48698 14.4424 9.2223C14.0054 8.95147 13.396 8.81605 12.6143 8.81605C11.931 8.81605 11.3493 8.9607 10.8692 9.25C10.3953 9.5393 10.0321 9.94555 9.77974 10.4688C9.53353 10.9858 9.40735 11.5952 9.40119 12.2969C9.40735 12.9493 9.51199 13.5679 9.71511 14.1527C9.91824 14.7313 10.2537 15.2022 10.7215 15.5653C11.1893 15.9223 11.8264 16.1009 12.6327 16.1009Z" fill="#1E1E1E"/>
</svg>
