<svg width="23" height="23" viewBox="0 0 23 23" fill="none" xmlns="http://www.w3.org/2000/svg">
<g clip-path="url(#clip0_130_294)">
<path fill-rule="evenodd" clip-rule="evenodd" d="M11.4655 0.551025C5.27083 0.551025 0.246292 5.57653 0.246292 11.7712C0.246292 16.7272 3.48067 20.9257 7.8866 22.4398C8.43669 22.5088 8.64369 22.1648 8.64369 21.8888V19.9625C5.54588 20.6506 4.85731 18.4484 4.85731 18.4484C4.37575 17.1403 3.61819 16.7953 3.61819 16.7953C2.58606 16.1076 3.68719 16.1077 3.68719 16.1077C4.78831 16.1767 5.4074 17.2778 5.4074 17.2778C6.44048 18.998 8.02365 18.5169 8.64321 18.2409C8.71125 17.4838 9.05529 17.0023 9.33081 16.7267C6.85352 16.4517 4.23727 15.4881 4.23727 11.1516C4.23727 9.91298 4.65031 8.94938 5.4074 8.1233C5.26988 7.84778 4.92583 6.67765 5.5454 5.16348C5.5454 5.16348 6.50852 4.88844 8.64273 6.33361C9.53685 6.05857 10.5005 5.98957 11.4641 5.98957C12.4272 5.98957 13.3913 6.12661 14.2864 6.33313C16.4201 4.88796 17.3837 5.163 17.3837 5.163C18.0032 6.67717 17.5897 7.8473 17.5212 8.12282C18.2782 8.94911 18.6957 10.0305 18.6904 11.1512C18.6904 15.4876 16.0751 16.3827 13.5968 16.6577C14.0104 17.0018 14.3539 17.6903 14.3539 18.7229V21.8203C14.3539 22.0953 14.5609 22.4394 15.111 22.3713C19.5855 20.8572 22.7518 16.6577 22.7518 11.7022C22.6833 5.57605 17.6583 0.551984 11.4636 0.551984L11.4655 0.551025Z" fill="#191717"/>
</g>
<defs>
<clipPath id="clip0_130_294">
<rect width="23" height="23" fill="white"/>
</clipPath>
</defs>
</svg>
