<svg width="24" height="24" viewBox="0 0 24 24" fill="none" xmlns="http://www.w3.org/2000/svg">
<path d="M20 10C20 14.418 12 22 12 22C12 22 4 14.418 4 10C4 7.87827 4.84285 5.84344 6.34315 4.34315C7.84344 2.84285 9.87827 2 12 2C14.1217 2 16.1566 2.84285 17.6569 4.34315C19.1571 5.84344 20 7.87827 20 10Z" stroke="#4D4D4D" stroke-width="1.5"/>
<path d="M12 11C12.2652 11 12.5196 10.8946 12.7071 10.7071C12.8946 10.5196 13 10.2652 13 10C13 9.73478 12.8946 9.48043 12.7071 9.29289C12.5196 9.10536 12.2652 9 12 9C11.7348 9 11.4804 9.10536 11.2929 9.29289C11.1054 9.48043 11 9.73478 11 10C11 10.2652 11.1054 10.5196 11.2929 10.7071C11.4804 10.8946 11.7348 11 12 11Z" fill="#4D4D4D" stroke="#4D4D4D" stroke-width="1.5" stroke-linecap="round" stroke-linejoin="round"/>
</svg>
